<?xml version="1.0" encoding="UTF-8"?>
<svg width="64px" height="50px" viewBox="0 0 64 50" version="1.1" xmlns="http://www.w3.org/2000/svg" xmlns:xlink="http://www.w3.org/1999/xlink">
    <!-- Generator: Sketch 46 (44423) - http://www.bohemiancoding.com/sketch -->
    <title>logo-small</title>
    <desc>Created with Sketch.</desc>
    <defs></defs>
    <g id="Page-1" stroke="none" stroke-width="1" fill="none" fill-rule="evenodd">
        <g id="logo-small">
            <path d="M34.7928417,3.70578344 C34.9344059,3.98433413 35.5032489,4.5670778 36.3272635,4.27170403 C41.6200872,2.37445456 46.2911991,2.01777454 50.1299454,3.42518013 C47.9780571,3.13430583 46.5257145,4.28137455 45.6848391,5.54505992 C45.2084962,6.26091822 45.5185186,7.53561452 46.4223666,8.22423376 C51.4898671,11.7411515 55.3378148,17.4436698 55.9308597,25.0084002 C57.0197043,38.8974269 45.1178519,50.8665049 29.4208047,48.757712 C52.555059,50.2966293 54.0380933,21.8228801 36.3272635,16.9877382 C33.7307546,16.2788788 30.5409442,15.8324374 25.4794867,16.6244519 C21.1117888,17.3079072 18.3334548,12.5916165 21.1117888,9.03212649 C24.8275018,4.27170403 32.1751309,1.22244299 37.0130317,1 C35.3333506,1.49748464 34.203518,2.54619208 34.7928417,3.70578344 Z M46.2746861,39.5786609 L46.2746861,39.5786609 C43.3590281,45.1177527 37.0376299,49.1397729 27.0208229,48.290727 C22.5632894,47.1324111 17.7529361,44.2525058 14.967581,41.0647118 C11.06494,36.5982022 8.75249171,30.5400549 9.02110836,23.6336126 C9.02658904,23.4926978 9.07753479,23.1115959 9.14170275,22.9468161 C9.20587072,22.7820362 9.35325486,22.5520442 9.49026538,22.4404135 C10.1470421,21.9052979 10.5775105,22.0315023 11.0944281,21.6789693 C11.6113457,21.3264363 11.4703179,20.6107421 12.2985945,20.1403974 C13.1268711,19.6700527 13.6335206,20.2020877 14.1316397,19.8879886 C14.6297589,19.5738895 14.4465136,18.9580842 15.3732845,18.5333504 C16.3000554,18.1086165 17.4941012,18.8913649 17.3484254,19.7933881 C13.7523542,42.0602249 38.0783919,48.7465068 46.2746861,39.5786609 Z M11.3223875,24.5261156 C11.6053002,24.3292649 11.6214199,23.6599383 11.3841934,23.172973 C11.1469669,22.6860078 10.6316523,22.504567 10.1988449,22.7760636 C9.76603739,23.0475601 9.70295755,23.5808467 10.0343051,24.0164769 C10.3656526,24.4521071 11.0394748,24.7229664 11.3223875,24.5261156 Z M13.2009486,22.7493438 C13.5431615,22.7083544 13.8716242,22.1249419 13.890782,21.583606 C13.9099398,21.0422701 13.5401253,20.6401418 13.030519,20.6766683 C12.5209128,20.7131947 12.2148537,21.1544446 12.3029003,21.6946415 C12.3909468,22.2348384 12.8587357,22.7903333 13.2009486,22.7493438 Z M15.7635457,21.455483 C16.1062083,21.4925252 16.5574918,20.9979536 16.6979326,20.4748016 C16.8383735,19.9516497 16.5684965,19.4766378 16.0637347,19.3975916 C15.558973,19.3185454 15.1614986,19.6796378 15.1257706,20.2257956 C15.0900427,20.7719535 15.420883,21.4184407 15.7635457,21.455483 Z M16.1598706,25.0667669 C16.1338303,24.2852575 15.2421426,23.3803687 14.1602974,23.6297949 C12.8353558,23.9352684 12.0725064,25.1122368 11.9280777,25.9069685 C11.7285903,27.0046651 12.2842742,27.8699538 13.9575228,27.3511735 C15.390364,26.90693 16.1936635,26.0809448 16.1598706,25.0667669 Z" id="Combined-Shape" fill="#F39655"></path>
            <path d="M20,37 L20,25 L23.8354866,25 L23.8354866,36.2792786 L25.8344986,36.2792786 L25.8344986,37 L20,37 Z M37.086746,34.061674 C37.086746,34.4682369 37.0129151,34.8507698 36.8652511,35.2092844 C36.7175871,35.5677989 36.4785157,35.8801084 36.1480296,36.1462223 C35.8175436,36.4123361 35.3780741,36.6211585 34.8296079,36.7726955 C34.2811416,36.9242326 33.6061164,37 32.804512,37 C32.0029075,37 31.3313981,36.9242326 30.7899635,36.7726955 C30.2485289,36.6211585 29.8125751,36.4123361 29.4820891,36.1462223 C29.151603,35.8801084 28.9160474,35.5677989 28.775415,35.2092844 C28.6347826,34.8507698 28.5644675,34.4682369 28.5644675,34.061674 L28.543373,25 L31.7640744,25.005544 L31.7851689,33.9674258 C31.7851689,34.2557159 31.8238422,34.5403056 31.90119,34.8212036 C31.9785378,35.1021015 32.1191681,35.3515796 32.323085,35.5696451 C32.5270019,35.7877106 32.7693141,36.0195669 33.082964,36.0907822 C33.4219297,36.1677454 33.9522625,36.1721901 34.2178601,36.0907822 C34.4834578,36.0093742 34.8682805,35.7821666 35.0721975,35.5641011 C35.2761144,35.3460355 35.4167446,35.0984055 35.4940924,34.8212036 C35.5714402,34.5440016 35.6101136,34.2575639 35.6101136,33.9618818 L35.589019,25 L37.0656514,25 L37.086746,34.061674 Z M44.9948466,25.7042634 L44.9948466,25.7042634 C44.7795794,25.7141916 44.5909758,25.7321762 44.4533534,25.7645921 C43.7128361,25.9390148 43.3530823,26.3733181 43.1907625,26.593141 C42.9236983,26.9548147 42.7992918,27.2199979 42.7118356,27.6657382 C42.6241153,28.1128247 42.5506098,28.6051792 42.5506098,29.0668206 C42.5506098,29.5504449 42.4753872,33.8682351 42.5506098,34.3169528 C42.687486,35.1334464 42.846241,35.3689243 42.9597918,35.5385734 C43.2025113,35.9012057 43.5678229,36.2300388 44.2121405,36.2956764 C44.3342212,36.3035864 44.4596299,36.3075414 44.5883667,36.3075414 C45.0205386,36.3075414 45.4088123,36.2782312 45.7531993,36.2196101 C46.0975862,36.160989 46.3845711,36.0767224 46.6141624,35.9668078 L46.5939047,31.6704758 L44.547851,31.6704758 L44.547851,31 L47.9714458,31 L47.9739803,31.6723134 L47.9797423,31.6704758 L48,35.9668078 C47.9967409,35.968368 47.9934702,35.9699231 47.9901879,35.9714731 L47.9917035,36.3734898 C47.6000477,36.5640085 47.1239905,36.7160548 46.5635175,36.8296332 C46.0030446,36.9432116 45.3446676,37 44.5883667,37 C43.7915498,37 43.0757758,36.9047421 42.4410233,36.7142234 C41.8062708,36.5237047 41.2728166,36.2525861 40.8406447,35.9008593 C40.4084728,35.5491325 40.0775961,35.1241357 39.8480048,34.6258561 C39.6184134,34.1275765 39.6859413,29.6823424 39.6859413,29.0668206 C39.6859413,28.4879369 39.797359,27.9493633 40.0201976,27.4510837 C40.2430363,26.9528041 40.563784,26.5223117 40.9824506,26.1595934 C41.4011171,25.7968752 41.9143136,25.5129333 42.5220553,25.3077594 C43.1297971,25.1025854 43.8185607,25 44.5883669,25 C45.2906463,25 45.9321418,25.0769391 46.5128729,25.2308195 C47.0936039,25.3847 47.57979,25.6265085 47.9714458,25.9562524 L47.0598377,26.4618571 C46.7492141,26.2053897 46.3879508,26.013042 45.976037,25.8848083 C45.6661679,25.7883423 45.3391063,25.7281609 44.9948466,25.7042634 Z" id="Combined-Shape" fill="#292626"></path>
        </g>
    </g>
</svg>